FFmpeg version SVN-r25716, Copyright (c) 2000-2010 the FFmpeg developers  built on Nov 10 2010 12:23:18 with gcc 4.1.2 20080704 (Red Hat 4.1.2-48)  configuration: --enable-libmp3lame --enable-shared --disable-mmx --arch=x86_64  libavutil     50.33. 0 / 50.33. 0  libavcore      0.12. 1 /  0.12. 1  libavcodec    52.94. 4 / 52.94. 4  libavformat   52.84. 0 / 52.84. 0  libavdevice   52. 2. 2 / 52. 2. 2  libavfilter    1.59. 0 /  1.59. 0  libswscale     0.12. 0 /  0.12. 0Seems stream 0 codec frame rate differs from container frame rate: 600.00 (600/1) -> 20.00 (20/1)Input #0, mov,mp4,m4a,3gp,3g2,mj2, from '/RAID10/data/converted_video_files/25844.mov':  Metadata:    major_brand     : qt      minor_version   : 537199360    compatible_brands: qt    Duration: 00:00:15.00, start: 0.000000, bitrate: 2683 kb/s    Stream #0.0(eng): Video: cinepak, yuv420p, 423x412, 2681 kb/s, 20 fps, 20 tbr, 600 tbn, 600 tbc[buffer @ 0xe0ea300] w:423 h:412 pixfmt:yuv420pOutput #0, flv, to '/RAID10/data/converted_video_files/25844.flv':  Metadata:    encoder         : Lavf52.84.0    Stream #0.0(eng): Video: flv, yuv420p, 423x412, q=2-31, 600 kb/s, 1k tbn, 24 tbcStream mapping:  Stream #0.0 -> #0.0Press [q] to stop encodingframe=   79 fps=  0 q=17.4 size=     386kB time=3.96 bitrate= 798.2kbits/s    frame=  167 fps=161 q=15.2 size=     674kB time=8.33 bitrate= 662.8kbits/s    frame=  256 fps=139 q=13.7 size=     979kB time=12.79 bitrate= 627.0kbits/s    frame=  280 fps=130 q=13.2 size=    1063kB time=14.00 bitrate= 622.0kbits/s    frame=  300 fps=123 q=13.1 Lsize=    1130kB time=15.00 bitrate= 617.2kbits/s    video:1125kB audio:0kB global headers:0kB muxing overhead 0.434778%